<?xml version="1.0" standalone="yes"?><svg version="1.1" xmlns="http://www.w3.org/2000/svg" xmlns:xlink="http://www.w3.org/1999/xlink" xmlns:ev="http://www.w3.org/2001/xml-events" width="222" height="222" shape-rendering="crispEdges"><rect width="6" height="6" x="0" y="0" fill="#000"/><rect width="6" height="6" x="6" y="0" fill="#000"/><rect width="6" height="6" x="12" y="0" fill="#000"/><rect width="6" height="6" x="18" y="0" fill="#000"/><rect width="6" height="6" x="24" y="0" fill="#000"/><rect width="6" height="6" x="30" y="0" fill="#000"/><rect width="6" height="6" x="36" y="0" fill="#000"/><rect width="6" height="6" x="54" y="0" fill="#000"/><rect width="6" height="6" x="60" y="0" fill="#000"/><rect width="6" height="6" x="66" y="0" fill="#000"/><rect width="6" height="6" x="78" y="0" fill="#000"/><rect width="6" height="6" x="102" y="0" fill="#000"/><rect width="6" height="6" x="108" y="0" fill="#000"/><rect width="6" height="6" x="114" y="0" fill="#000"/><rect width="6" height="6" x="120" y="0" fill="#000"/><rect width="6" height="6" x="138" y="0" fill="#000"/><rect width="6" height="6" x="150" y="0" fill="#000"/><rect width="6" height="6" x="156" y="0" fill="#000"/><rect width="6" height="6" x="162" y="0" fill="#000"/><rect width="6" height="6" x="168" y="0" fill="#000"/><rect width="6" height="6" x="180" y="0" fill="#000"/><rect width="6" height="6" x="186" y="0" fill="#000"/><rect width="6" height="6" x="192" y="0" fill="#000"/><rect width="6" height="6" x="198" y="0" fill="#000"/><rect width="6" height="6" x="204" y="0" fill="#000"/><rect width="6" height="6" x="210" y="0" fill="#000"/><rect width="6" height="6" x="216" y="0" fill="#000"/><rect width="6" height="6" x="0" y="6" fill="#000"/><rect width="6" height="6" x="36" y="6" fill="#000"/><rect width="6" height="6" x="48" y="6" fill="#000"/><rect width="6" height="6" x="54" y="6" fill="#000"/><rect width="6" height="6" x="72" y="6" fill="#000"/><rect width="6" height="6" x="78" y="6" fill="#000"/><rect width="6" height="6" x="96" y="6" fill="#000"/><rect width="6" height="6" x="108" y="6" fill="#000"/><rect width="6" height="6" x="126" y="6" fill="#000"/><rect width="6" height="6" x="132" y="6" fill="#000"/><rect width="6" height="6" x="138" y="6" fill="#000"/><rect width="6" height="6" x="150" y="6" fill="#000"/><rect width="6" height="6" x="168" y="6" fill="#000"/><rect width="6" height="6" x="180" y="6" fill="#000"/><rect width="6" height="6" x="216" y="6" fill="#000"/><rect width="6" height="6" x="0" y="12" fill="#000"/><rect width="6" height="6" x="12" y="12" fill="#000"/><rect width="6" height="6" x="18" y="12" fill="#000"/><rect width="6" height="6" x="24" y="12" fill="#000"/><rect width="6" height="6" x="36" y="12" fill="#000"/><rect width="6" height="6" x="60" y="12" fill="#000"/><rect width="6" height="6" x="66" y="12" fill="#000"/><rect width="6" height="6" x="84" y="12" fill="#000"/><rect width="6" height="6" x="90" y="12" fill="#000"/><rect width="6" height="6" x="96" y="12" fill="#000"/><rect width="6" height="6" x="108" y="12" fill="#000"/><rect width="6" height="6" x="156" y="12" fill="#000"/><rect width="6" height="6" x="180" y="12" fill="#000"/><rect width="6" height="6" x="192" y="12" fill="#000"/><rect width="6" height="6" x="198" y="12" fill="#000"/><rect width="6" height="6" x="204" y="12" fill="#000"/><rect width="6" height="6" x="216" y="12" fill="#000"/><rect width="6" height="6" x="0" y="18" fill="#000"/><rect width="6" height="6" x="12" y="18" fill="#000"/><rect width="6" height="6" x="18" y="18" fill="#000"/><rect width="6" height="6" x="24" y="18" fill="#000"/><rect width="6" height="6" x="36" y="18" fill="#000"/><rect width="6" height="6" x="60" y="18" fill="#000"/><rect width="6" height="6" x="84" y="18" fill="#000"/><rect width="6" height="6" x="108" y="18" fill="#000"/><rect width="6" height="6" x="144" y="18" fill="#000"/><rect width="6" height="6" x="150" y="18" fill="#000"/><rect width="6" height="6" x="156" y="18" fill="#000"/><rect width="6" height="6" x="180" y="18" fill="#000"/><rect width="6" height="6" x="192" y="18" fill="#000"/><rect width="6" height="6" x="198" y="18" fill="#000"/><rect width="6" height="6" x="204" y="18" fill="#000"/><rect width="6" height="6" x="216" y="18" fill="#000"/><rect width="6" height="6" x="0" y="24" fill="#000"/><rect width="6" height="6" x="12" y="24" fill="#000"/><rect width="6" height="6" x="18" y="24" fill="#000"/><rect width="6" height="6" x="24" y="24" fill="#000"/><rect width="6" height="6" x="36" y="24" fill="#000"/><rect width="6" height="6" x="66" y="24" fill="#000"/><rect width="6" height="6" x="84" y="24" fill="#000"/><rect width="6" height="6" x="96" y="24" fill="#000"/><rect width="6" height="6" x="102" y="24" fill="#000"/><rect width="6" height="6" x="114" y="24" fill="#000"/><rect width="6" height="6" x="126" y="24" fill="#000"/><rect width="6" height="6" x="132" y="24" fill="#000"/><rect width="6" height="6" x="144" y="24" fill="#000"/><rect width="6" height="6" x="150" y="24" fill="#000"/><rect width="6" height="6" x="168" y="24" fill="#000"/><rect width="6" height="6" x="180" y="24" fill="#000"/><rect width="6" height="6" x="192" y="24" fill="#000"/><rect width="6" height="6" x="198" y="24" fill="#000"/><rect width="6" height="6" x="204" y="24" fill="#000"/><rect width="6" height="6" x="216" y="24" fill="#000"/><rect width="6" height="6" x="0" y="30" fill="#000"/><rect width="6" height="6" x="36" y="30" fill="#000"/><rect width="6" height="6" x="48" y="30" fill="#000"/><rect width="6" height="6" x="54" y="30" fill="#000"/><rect width="6" height="6" x="78" y="30" fill="#000"/><rect width="6" height="6" x="114" y="30" fill="#000"/><rect width="6" height="6" x="120" y="30" fill="#000"/><rect width="6" height="6" x="126" y="30" fill="#000"/><rect width="6" height="6" x="138" y="30" fill="#000"/><rect width="6" height="6" x="150" y="30" fill="#000"/><rect width="6" height="6" x="156" y="30" fill="#000"/><rect width="6" height="6" x="168" y="30" fill="#000"/><rect width="6" height="6" x="180" y="30" fill="#000"/><rect width="6" height="6" x="216" y="30" fill="#000"/><rect width="6" height="6" x="0" y="36" fill="#000"/><rect width="6" height="6" x="6" y="36" fill="#000"/><rect width="6" height="6" x="12" y="36" fill="#000"/><rect width="6" height="6" x="18" y="36" fill="#000"/><rect width="6" height="6" x="24" y="36" fill="#000"/><rect width="6" height="6" x="30" y="36" fill="#000"/><rect width="6" height="6" x="36" y="36" fill="#000"/><rect width="6" height="6" x="48" y="36" fill="#000"/><rect width="6" height="6" x="60" y="36" fill="#000"/><rect width="6" height="6" x="72" y="36" fill="#000"/><rect width="6" height="6" x="84" y="36" fill="#000"/><rect width="6" height="6" x="96" y="36" fill="#000"/><rect width="6" height="6" x="108" y="36" fill="#000"/><rect width="6" height="6" x="120" y="36" fill="#000"/><rect width="6" height="6" x="132" y="36" fill="#000"/><rect width="6" height="6" x="144" y="36" fill="#000"/><rect width="6" height="6" x="156" y="36" fill="#000"/><rect width="6" height="6" x="168" y="36" fill="#000"/><rect width="6" height="6" x="180" y="36" fill="#000"/><rect width="6" height="6" x="186" y="36" fill="#000"/><rect width="6" height="6" x="192" y="36" fill="#000"/><rect width="6" height="6" x="198" y="36" fill="#000"/><rect width="6" height="6" x="204" y="36" fill="#000"/><rect width="6" height="6" x="210" y="36" fill="#000"/><rect width="6" height="6" x="216" y="36" fill="#000"/><rect width="6" height="6" x="48" y="42" fill="#000"/><rect width="6" height="6" x="54" y="42" fill="#000"/><rect width="6" height="6" x="60" y="42" fill="#000"/><rect width="6" height="6" x="78" y="42" fill="#000"/><rect width="6" height="6" x="96" y="42" fill="#000"/><rect width="6" height="6" x="108" y="42" fill="#000"/><rect width="6" height="6" x="114" y="42" fill="#000"/><rect width="6" height="6" x="138" y="42" fill="#000"/><rect width="6" height="6" x="156" y="42" fill="#000"/><rect width="6" height="6" x="24" y="48" fill="#000"/><rect width="6" height="6" x="30" y="48" fill="#000"/><rect width="6" height="6" x="36" y="48" fill="#000"/><rect width="6" height="6" x="42" y="48" fill="#000"/><rect width="6" height="6" x="72" y="48" fill="#000"/><rect width="6" height="6" x="78" y="48" fill="#000"/><rect width="6" height="6" x="84" y="48" fill="#000"/><rect width="6" height="6" x="108" y="48" fill="#000"/><rect width="6" height="6" x="126" y="48" fill="#000"/><rect width="6" height="6" x="144" y="48" fill="#000"/><rect width="6" height="6" x="150" y="48" fill="#000"/><rect width="6" height="6" x="156" y="48" fill="#000"/><rect width="6" height="6" x="162" y="48" fill="#000"/><rect width="6" height="6" x="180" y="48" fill="#000"/><rect width="6" height="6" x="186" y="48" fill="#000"/><rect width="6" height="6" x="210" y="48" fill="#000"/><rect width="6" height="6" x="12" y="54" fill="#000"/><rect width="6" height="6" x="42" y="54" fill="#000"/><rect width="6" height="6" x="60" y="54" fill="#000"/><rect width="6" height="6" x="96" y="54" fill="#000"/><rect width="6" height="6" x="132" y="54" fill="#000"/><rect width="6" height="6" x="138" y="54" fill="#000"/><rect width="6" height="6" x="144" y="54" fill="#000"/><rect width="6" height="6" x="168" y="54" fill="#000"/><rect width="6" height="6" x="180" y="54" fill="#000"/><rect width="6" height="6" x="186" y="54" fill="#000"/><rect width="6" height="6" x="192" y="54" fill="#000"/><rect width="6" height="6" x="198" y="54" fill="#000"/><rect width="6" height="6" x="204" y="54" fill="#000"/><rect width="6" height="6" x="210" y="54" fill="#000"/><rect width="6" height="6" x="12" y="60" fill="#000"/><rect width="6" height="6" x="18" y="60" fill="#000"/><rect width="6" height="6" x="36" y="60" fill="#000"/><rect width="6" height="6" x="42" y="60" fill="#000"/><rect width="6" height="6" x="48" y="60" fill="#000"/><rect width="6" height="6" x="54" y="60" fill="#000"/><rect width="6" height="6" x="72" y="60" fill="#000"/><rect width="6" height="6" x="90" y="60" fill="#000"/><rect width="6" height="6" x="96" y="60" fill="#000"/><rect width="6" height="6" x="108" y="60" fill="#000"/><rect width="6" height="6" x="114" y="60" fill="#000"/><rect width="6" height="6" x="126" y="60" fill="#000"/><rect width="6" height="6" x="138" y="60" fill="#000"/><rect width="6" height="6" x="144" y="60" fill="#000"/><rect width="6" height="6" x="150" y="60" fill="#000"/><rect width="6" height="6" x="168" y="60" fill="#000"/><rect width="6" height="6" x="174" y="60" fill="#000"/><rect width="6" height="6" x="186" y="60" fill="#000"/><rect width="6" height="6" x="0" y="66" fill="#000"/><rect width="6" height="6" x="6" y="66" fill="#000"/><rect width="6" height="6" x="12" y="66" fill="#000"/><rect width="6" height="6" x="18" y="66" fill="#000"/><rect width="6" height="6" x="24" y="66" fill="#000"/><rect width="6" height="6" x="30" y="66" fill="#000"/><rect width="6" height="6" x="42" y="66" fill="#000"/><rect width="6" height="6" x="48" y="66" fill="#000"/><rect width="6" height="6" x="60" y="66" fill="#000"/><rect width="6" height="6" x="72" y="66" fill="#000"/><rect width="6" height="6" x="84" y="66" fill="#000"/><rect width="6" height="6" x="102" y="66" fill="#000"/><rect width="6" height="6" x="120" y="66" fill="#000"/><rect width="6" height="6" x="126" y="66" fill="#000"/><rect width="6" height="6" x="156" y="66" fill="#000"/><rect width="6" height="6" x="174" y="66" fill="#000"/><rect width="6" height="6" x="204" y="66" fill="#000"/><rect width="6" height="6" x="210" y="66" fill="#000"/><rect width="6" height="6" x="6" y="72" fill="#000"/><rect width="6" height="6" x="12" y="72" fill="#000"/><rect width="6" height="6" x="18" y="72" fill="#000"/><rect width="6" height="6" x="24" y="72" fill="#000"/><rect width="6" height="6" x="30" y="72" fill="#000"/><rect width="6" height="6" x="36" y="72" fill="#000"/><rect width="6" height="6" x="42" y="72" fill="#000"/><rect width="6" height="6" x="48" y="72" fill="#000"/><rect width="6" height="6" x="54" y="72" fill="#000"/><rect width="6" height="6" x="66" y="72" fill="#000"/><rect width="6" height="6" x="72" y="72" fill="#000"/><rect width="6" height="6" x="114" y="72" fill="#000"/><rect width="6" height="6" x="120" y="72" fill="#000"/><rect width="6" height="6" x="126" y="72" fill="#000"/><rect width="6" height="6" x="138" y="72" fill="#000"/><rect width="6" height="6" x="156" y="72" fill="#000"/><rect width="6" height="6" x="162" y="72" fill="#000"/><rect width="6" height="6" x="180" y="72" fill="#000"/><rect width="6" height="6" x="204" y="72" fill="#000"/><rect width="6" height="6" x="210" y="72" fill="#000"/><rect width="6" height="6" x="216" y="72" fill="#000"/><rect width="6" height="6" x="0" y="78" fill="#000"/><rect width="6" height="6" x="12" y="78" fill="#000"/><rect width="6" height="6" x="18" y="78" fill="#000"/><rect width="6" height="6" x="42" y="78" fill="#000"/><rect width="6" height="6" x="48" y="78" fill="#000"/><rect width="6" height="6" x="60" y="78" fill="#000"/><rect width="6" height="6" x="96" y="78" fill="#000"/><rect width="6" height="6" x="102" y="78" fill="#000"/><rect width="6" height="6" x="108" y="78" fill="#000"/><rect width="6" height="6" x="144" y="78" fill="#000"/><rect width="6" height="6" x="150" y="78" fill="#000"/><rect width="6" height="6" x="162" y="78" fill="#000"/><rect width="6" height="6" x="168" y="78" fill="#000"/><rect width="6" height="6" x="174" y="78" fill="#000"/><rect width="6" height="6" x="186" y="78" fill="#000"/><rect width="6" height="6" x="192" y="78" fill="#000"/><rect width="6" height="6" x="204" y="78" fill="#000"/><rect width="6" height="6" x="210" y="78" fill="#000"/><rect width="6" height="6" x="216" y="78" fill="#000"/><rect width="6" height="6" x="12" y="84" fill="#000"/><rect width="6" height="6" x="24" y="84" fill="#000"/><rect width="6" height="6" x="36" y="84" fill="#000"/><rect width="6" height="6" x="54" y="84" fill="#000"/><rect width="6" height="6" x="66" y="84" fill="#000"/><rect width="6" height="6" x="102" y="84" fill="#000"/><rect width="6" height="6" x="108" y="84" fill="#000"/><rect width="6" height="6" x="138" y="84" fill="#000"/><rect width="6" height="6" x="144" y="84" fill="#000"/><rect width="6" height="6" x="162" y="84" fill="#000"/><rect width="6" height="6" x="168" y="84" fill="#000"/><rect width="6" height="6" x="174" y="84" fill="#000"/><rect width="6" height="6" x="186" y="84" fill="#000"/><rect width="6" height="6" x="198" y="84" fill="#000"/><rect width="6" height="6" x="204" y="84" fill="#000"/><rect width="6" height="6" x="12" y="90" fill="#000"/><rect width="6" height="6" x="24" y="90" fill="#000"/><rect width="6" height="6" x="42" y="90" fill="#000"/><rect width="6" height="6" x="60" y="90" fill="#000"/><rect width="6" height="6" x="66" y="90" fill="#000"/><rect width="6" height="6" x="84" y="90" fill="#000"/><rect width="6" height="6" x="90" y="90" fill="#000"/><rect width="6" height="6" x="96" y="90" fill="#000"/><rect width="6" height="6" x="108" y="90" fill="#000"/><rect width="6" height="6" x="114" y="90" fill="#000"/><rect width="6" height="6" x="126" y="90" fill="#000"/><rect width="6" height="6" x="138" y="90" fill="#000"/><rect width="6" height="6" x="144" y="90" fill="#000"/><rect width="6" height="6" x="156" y="90" fill="#000"/><rect width="6" height="6" x="162" y="90" fill="#000"/><rect width="6" height="6" x="174" y="90" fill="#000"/><rect width="6" height="6" x="204" y="90" fill="#000"/><rect width="6" height="6" x="6" y="96" fill="#000"/><rect width="6" height="6" x="12" y="96" fill="#000"/><rect width="6" height="6" x="18" y="96" fill="#000"/><rect width="6" height="6" x="30" y="96" fill="#000"/><rect width="6" height="6" x="36" y="96" fill="#000"/><rect width="6" height="6" x="54" y="96" fill="#000"/><rect width="6" height="6" x="60" y="96" fill="#000"/><rect width="6" height="6" x="78" y="96" fill="#000"/><rect width="6" height="6" x="84" y="96" fill="#000"/><rect width="6" height="6" x="96" y="96" fill="#000"/><rect width="6" height="6" x="108" y="96" fill="#000"/><rect width="6" height="6" x="120" y="96" fill="#000"/><rect width="6" height="6" x="132" y="96" fill="#000"/><rect width="6" height="6" x="144" y="96" fill="#000"/><rect width="6" height="6" x="180" y="96" fill="#000"/><rect width="6" height="6" x="198" y="96" fill="#000"/><rect width="6" height="6" x="204" y="96" fill="#000"/><rect width="6" height="6" x="216" y="96" fill="#000"/><rect width="6" height="6" x="6" y="102" fill="#000"/><rect width="6" height="6" x="18" y="102" fill="#000"/><rect width="6" height="6" x="24" y="102" fill="#000"/><rect width="6" height="6" x="30" y="102" fill="#000"/><rect width="6" height="6" x="54" y="102" fill="#000"/><rect width="6" height="6" x="60" y="102" fill="#000"/><rect width="6" height="6" x="84" y="102" fill="#000"/><rect width="6" height="6" x="90" y="102" fill="#000"/><rect width="6" height="6" x="96" y="102" fill="#000"/><rect width="6" height="6" x="114" y="102" fill="#000"/><rect width="6" height="6" x="120" y="102" fill="#000"/><rect width="6" height="6" x="150" y="102" fill="#000"/><rect width="6" height="6" x="162" y="102" fill="#000"/><rect width="6" height="6" x="174" y="102" fill="#000"/><rect width="6" height="6" x="186" y="102" fill="#000"/><rect width="6" height="6" x="192" y="102" fill="#000"/><rect width="6" height="6" x="198" y="102" fill="#000"/><rect width="6" height="6" x="204" y="102" fill="#000"/><rect width="6" height="6" x="0" y="108" fill="#000"/><rect width="6" height="6" x="6" y="108" fill="#000"/><rect width="6" height="6" x="18" y="108" fill="#000"/><rect width="6" height="6" x="30" y="108" fill="#000"/><rect width="6" height="6" x="36" y="108" fill="#000"/><rect width="6" height="6" x="42" y="108" fill="#000"/><rect width="6" height="6" x="48" y="108" fill="#000"/><rect width="6" height="6" x="66" y="108" fill="#000"/><rect width="6" height="6" x="84" y="108" fill="#000"/><rect width="6" height="6" x="114" y="108" fill="#000"/><rect width="6" height="6" x="120" y="108" fill="#000"/><rect width="6" height="6" x="126" y="108" fill="#000"/><rect width="6" height="6" x="150" y="108" fill="#000"/><rect width="6" height="6" x="162" y="108" fill="#000"/><rect width="6" height="6" x="168" y="108" fill="#000"/><rect width="6" height="6" x="186" y="108" fill="#000"/><rect width="6" height="6" x="192" y="108" fill="#000"/><rect width="6" height="6" x="204" y="108" fill="#000"/><rect width="6" height="6" x="0" y="114" fill="#000"/><rect width="6" height="6" x="6" y="114" fill="#000"/><rect width="6" height="6" x="18" y="114" fill="#000"/><rect width="6" height="6" x="24" y="114" fill="#000"/><rect width="6" height="6" x="30" y="114" fill="#000"/><rect width="6" height="6" x="42" y="114" fill="#000"/><rect width="6" height="6" x="54" y="114" fill="#000"/><rect width="6" height="6" x="66" y="114" fill="#000"/><rect width="6" height="6" x="72" y="114" fill="#000"/><rect width="6" height="6" x="90" y="114" fill="#000"/><rect width="6" height="6" x="96" y="114" fill="#000"/><rect width="6" height="6" x="102" y="114" fill="#000"/><rect width="6" height="6" x="108" y="114" fill="#000"/><rect width="6" height="6" x="120" y="114" fill="#000"/><rect width="6" height="6" x="132" y="114" fill="#000"/><rect width="6" height="6" x="138" y="114" fill="#000"/><rect width="6" height="6" x="156" y="114" fill="#000"/><rect width="6" height="6" x="162" y="114" fill="#000"/><rect width="6" height="6" x="168" y="114" fill="#000"/><rect width="6" height="6" x="174" y="114" fill="#000"/><rect width="6" height="6" x="180" y="114" fill="#000"/><rect width="6" height="6" x="198" y="114" fill="#000"/><rect width="6" height="6" x="204" y="114" fill="#000"/><rect width="6" height="6" x="6" y="120" fill="#000"/><rect width="6" height="6" x="18" y="120" fill="#000"/><rect width="6" height="6" x="30" y="120" fill="#000"/><rect width="6" height="6" x="36" y="120" fill="#000"/><rect width="6" height="6" x="42" y="120" fill="#000"/><rect width="6" height="6" x="48" y="120" fill="#000"/><rect width="6" height="6" x="54" y="120" fill="#000"/><rect width="6" height="6" x="60" y="120" fill="#000"/><rect width="6" height="6" x="78" y="120" fill="#000"/><rect width="6" height="6" x="90" y="120" fill="#000"/><rect width="6" height="6" x="102" y="120" fill="#000"/><rect width="6" height="6" x="108" y="120" fill="#000"/><rect width="6" height="6" x="120" y="120" fill="#000"/><rect width="6" height="6" x="144" y="120" fill="#000"/><rect width="6" height="6" x="180" y="120" fill="#000"/><rect width="6" height="6" x="198" y="120" fill="#000"/><rect width="6" height="6" x="204" y="120" fill="#000"/><rect width="6" height="6" x="210" y="120" fill="#000"/><rect width="6" height="6" x="216" y="120" fill="#000"/><rect width="6" height="6" x="0" y="126" fill="#000"/><rect width="6" height="6" x="12" y="126" fill="#000"/><rect width="6" height="6" x="18" y="126" fill="#000"/><rect width="6" height="6" x="24" y="126" fill="#000"/><rect width="6" height="6" x="48" y="126" fill="#000"/><rect width="6" height="6" x="54" y="126" fill="#000"/><rect width="6" height="6" x="66" y="126" fill="#000"/><rect width="6" height="6" x="90" y="126" fill="#000"/><rect width="6" height="6" x="96" y="126" fill="#000"/><rect width="6" height="6" x="108" y="126" fill="#000"/><rect width="6" height="6" x="120" y="126" fill="#000"/><rect width="6" height="6" x="138" y="126" fill="#000"/><rect width="6" height="6" x="162" y="126" fill="#000"/><rect width="6" height="6" x="192" y="126" fill="#000"/><rect width="6" height="6" x="0" y="132" fill="#000"/><rect width="6" height="6" x="6" y="132" fill="#000"/><rect width="6" height="6" x="12" y="132" fill="#000"/><rect width="6" height="6" x="18" y="132" fill="#000"/><rect width="6" height="6" x="24" y="132" fill="#000"/><rect width="6" height="6" x="30" y="132" fill="#000"/><rect width="6" height="6" x="36" y="132" fill="#000"/><rect width="6" height="6" x="72" y="132" fill="#000"/><rect width="6" height="6" x="78" y="132" fill="#000"/><rect width="6" height="6" x="84" y="132" fill="#000"/><rect width="6" height="6" x="96" y="132" fill="#000"/><rect width="6" height="6" x="108" y="132" fill="#000"/><rect width="6" height="6" x="126" y="132" fill="#000"/><rect width="6" height="6" x="150" y="132" fill="#000"/><rect width="6" height="6" x="156" y="132" fill="#000"/><rect width="6" height="6" x="162" y="132" fill="#000"/><rect width="6" height="6" x="180" y="132" fill="#000"/><rect width="6" height="6" x="6" y="138" fill="#000"/><rect width="6" height="6" x="18" y="138" fill="#000"/><rect width="6" height="6" x="30" y="138" fill="#000"/><rect width="6" height="6" x="42" y="138" fill="#000"/><rect width="6" height="6" x="48" y="138" fill="#000"/><rect width="6" height="6" x="60" y="138" fill="#000"/><rect width="6" height="6" x="90" y="138" fill="#000"/><rect width="6" height="6" x="96" y="138" fill="#000"/><rect width="6" height="6" x="114" y="138" fill="#000"/><rect width="6" height="6" x="138" y="138" fill="#000"/><rect width="6" height="6" x="144" y="138" fill="#000"/><rect width="6" height="6" x="150" y="138" fill="#000"/><rect width="6" height="6" x="174" y="138" fill="#000"/><rect width="6" height="6" x="180" y="138" fill="#000"/><rect width="6" height="6" x="186" y="138" fill="#000"/><rect width="6" height="6" x="198" y="138" fill="#000"/><rect width="6" height="6" x="204" y="138" fill="#000"/><rect width="6" height="6" x="0" y="144" fill="#000"/><rect width="6" height="6" x="6" y="144" fill="#000"/><rect width="6" height="6" x="12" y="144" fill="#000"/><rect width="6" height="6" x="18" y="144" fill="#000"/><rect width="6" height="6" x="24" y="144" fill="#000"/><rect width="6" height="6" x="30" y="144" fill="#000"/><rect width="6" height="6" x="36" y="144" fill="#000"/><rect width="6" height="6" x="54" y="144" fill="#000"/><rect width="6" height="6" x="60" y="144" fill="#000"/><rect width="6" height="6" x="66" y="144" fill="#000"/><rect width="6" height="6" x="72" y="144" fill="#000"/><rect width="6" height="6" x="78" y="144" fill="#000"/><rect width="6" height="6" x="90" y="144" fill="#000"/><rect width="6" height="6" x="114" y="144" fill="#000"/><rect width="6" height="6" x="138" y="144" fill="#000"/><rect width="6" height="6" x="144" y="144" fill="#000"/><rect width="6" height="6" x="150" y="144" fill="#000"/><rect width="6" height="6" x="162" y="144" fill="#000"/><rect width="6" height="6" x="168" y="144" fill="#000"/><rect width="6" height="6" x="174" y="144" fill="#000"/><rect width="6" height="6" x="186" y="144" fill="#000"/><rect width="6" height="6" x="204" y="144" fill="#000"/><rect width="6" height="6" x="210" y="144" fill="#000"/><rect width="6" height="6" x="0" y="150" fill="#000"/><rect width="6" height="6" x="18" y="150" fill="#000"/><rect width="6" height="6" x="24" y="150" fill="#000"/><rect width="6" height="6" x="30" y="150" fill="#000"/><rect width="6" height="6" x="42" y="150" fill="#000"/><rect width="6" height="6" x="60" y="150" fill="#000"/><rect width="6" height="6" x="66" y="150" fill="#000"/><rect width="6" height="6" x="78" y="150" fill="#000"/><rect width="6" height="6" x="102" y="150" fill="#000"/><rect width="6" height="6" x="108" y="150" fill="#000"/><rect width="6" height="6" x="126" y="150" fill="#000"/><rect width="6" height="6" x="156" y="150" fill="#000"/><rect width="6" height="6" x="180" y="150" fill="#000"/><rect width="6" height="6" x="192" y="150" fill="#000"/><rect width="6" height="6" x="204" y="150" fill="#000"/><rect width="6" height="6" x="210" y="150" fill="#000"/><rect width="6" height="6" x="12" y="156" fill="#000"/><rect width="6" height="6" x="30" y="156" fill="#000"/><rect width="6" height="6" x="36" y="156" fill="#000"/><rect width="6" height="6" x="42" y="156" fill="#000"/><rect width="6" height="6" x="48" y="156" fill="#000"/><rect width="6" height="6" x="54" y="156" fill="#000"/><rect width="6" height="6" x="78" y="156" fill="#000"/><rect width="6" height="6" x="84" y="156" fill="#000"/><rect width="6" height="6" x="90" y="156" fill="#000"/><rect width="6" height="6" x="96" y="156" fill="#000"/><rect width="6" height="6" x="114" y="156" fill="#000"/><rect width="6" height="6" x="150" y="156" fill="#000"/><rect width="6" height="6" x="162" y="156" fill="#000"/><rect width="6" height="6" x="174" y="156" fill="#000"/><rect width="6" height="6" x="180" y="156" fill="#000"/><rect width="6" height="6" x="186" y="156" fill="#000"/><rect width="6" height="6" x="192" y="156" fill="#000"/><rect width="6" height="6" x="204" y="156" fill="#000"/><rect width="6" height="6" x="12" y="162" fill="#000"/><rect width="6" height="6" x="24" y="162" fill="#000"/><rect width="6" height="6" x="42" y="162" fill="#000"/><rect width="6" height="6" x="54" y="162" fill="#000"/><rect width="6" height="6" x="78" y="162" fill="#000"/><rect width="6" height="6" x="90" y="162" fill="#000"/><rect width="6" height="6" x="96" y="162" fill="#000"/><rect width="6" height="6" x="102" y="162" fill="#000"/><rect width="6" height="6" x="108" y="162" fill="#000"/><rect width="6" height="6" x="126" y="162" fill="#000"/><rect width="6" height="6" x="132" y="162" fill="#000"/><rect width="6" height="6" x="144" y="162" fill="#000"/><rect width="6" height="6" x="162" y="162" fill="#000"/><rect width="6" height="6" x="168" y="162" fill="#000"/><rect width="6" height="6" x="174" y="162" fill="#000"/><rect width="6" height="6" x="180" y="162" fill="#000"/><rect width="6" height="6" x="186" y="162" fill="#000"/><rect width="6" height="6" x="204" y="162" fill="#000"/><rect width="6" height="6" x="0" y="168" fill="#000"/><rect width="6" height="6" x="6" y="168" fill="#000"/><rect width="6" height="6" x="36" y="168" fill="#000"/><rect width="6" height="6" x="60" y="168" fill="#000"/><rect width="6" height="6" x="72" y="168" fill="#000"/><rect width="6" height="6" x="90" y="168" fill="#000"/><rect width="6" height="6" x="102" y="168" fill="#000"/><rect width="6" height="6" x="108" y="168" fill="#000"/><rect width="6" height="6" x="114" y="168" fill="#000"/><rect width="6" height="6" x="132" y="168" fill="#000"/><rect width="6" height="6" x="138" y="168" fill="#000"/><rect width="6" height="6" x="144" y="168" fill="#000"/><rect width="6" height="6" x="156" y="168" fill="#000"/><rect width="6" height="6" x="168" y="168" fill="#000"/><rect width="6" height="6" x="174" y="168" fill="#000"/><rect width="6" height="6" x="180" y="168" fill="#000"/><rect width="6" height="6" x="186" y="168" fill="#000"/><rect width="6" height="6" x="192" y="168" fill="#000"/><rect width="6" height="6" x="198" y="168" fill="#000"/><rect width="6" height="6" x="204" y="168" fill="#000"/><rect width="6" height="6" x="210" y="168" fill="#000"/><rect width="6" height="6" x="216" y="168" fill="#000"/><rect width="6" height="6" x="48" y="174" fill="#000"/><rect width="6" height="6" x="54" y="174" fill="#000"/><rect width="6" height="6" x="66" y="174" fill="#000"/><rect width="6" height="6" x="72" y="174" fill="#000"/><rect width="6" height="6" x="78" y="174" fill="#000"/><rect width="6" height="6" x="120" y="174" fill="#000"/><rect width="6" height="6" x="126" y="174" fill="#000"/><rect width="6" height="6" x="132" y="174" fill="#000"/><rect width="6" height="6" x="138" y="174" fill="#000"/><rect width="6" height="6" x="150" y="174" fill="#000"/><rect width="6" height="6" x="162" y="174" fill="#000"/><rect width="6" height="6" x="168" y="174" fill="#000"/><rect width="6" height="6" x="192" y="174" fill="#000"/><rect width="6" height="6" x="198" y="174" fill="#000"/><rect width="6" height="6" x="210" y="174" fill="#000"/><rect width="6" height="6" x="0" y="180" fill="#000"/><rect width="6" height="6" x="6" y="180" fill="#000"/><rect width="6" height="6" x="12" y="180" fill="#000"/><rect width="6" height="6" x="18" y="180" fill="#000"/><rect width="6" height="6" x="24" y="180" fill="#000"/><rect width="6" height="6" x="30" y="180" fill="#000"/><rect width="6" height="6" x="36" y="180" fill="#000"/><rect width="6" height="6" x="48" y="180" fill="#000"/><rect width="6" height="6" x="66" y="180" fill="#000"/><rect width="6" height="6" x="72" y="180" fill="#000"/><rect width="6" height="6" x="78" y="180" fill="#000"/><rect width="6" height="6" x="102" y="180" fill="#000"/><rect width="6" height="6" x="138" y="180" fill="#000"/><rect width="6" height="6" x="144" y="180" fill="#000"/><rect width="6" height="6" x="150" y="180" fill="#000"/><rect width="6" height="6" x="168" y="180" fill="#000"/><rect width="6" height="6" x="180" y="180" fill="#000"/><rect width="6" height="6" x="192" y="180" fill="#000"/><rect width="6" height="6" x="198" y="180" fill="#000"/><rect width="6" height="6" x="204" y="180" fill="#000"/><rect width="6" height="6" x="210" y="180" fill="#000"/><rect width="6" height="6" x="0" y="186" fill="#000"/><rect width="6" height="6" x="36" y="186" fill="#000"/><rect width="6" height="6" x="48" y="186" fill="#000"/><rect width="6" height="6" x="54" y="186" fill="#000"/><rect width="6" height="6" x="66" y="186" fill="#000"/><rect width="6" height="6" x="72" y="186" fill="#000"/><rect width="6" height="6" x="102" y="186" fill="#000"/><rect width="6" height="6" x="108" y="186" fill="#000"/><rect width="6" height="6" x="114" y="186" fill="#000"/><rect width="6" height="6" x="126" y="186" fill="#000"/><rect width="6" height="6" x="138" y="186" fill="#000"/><rect width="6" height="6" x="144" y="186" fill="#000"/><rect width="6" height="6" x="156" y="186" fill="#000"/><rect width="6" height="6" x="168" y="186" fill="#000"/><rect width="6" height="6" x="192" y="186" fill="#000"/><rect width="6" height="6" x="204" y="186" fill="#000"/><rect width="6" height="6" x="210" y="186" fill="#000"/><rect width="6" height="6" x="216" y="186" fill="#000"/><rect width="6" height="6" x="0" y="192" fill="#000"/><rect width="6" height="6" x="12" y="192" fill="#000"/><rect width="6" height="6" x="18" y="192" fill="#000"/><rect width="6" height="6" x="24" y="192" fill="#000"/><rect width="6" height="6" x="36" y="192" fill="#000"/><rect width="6" height="6" x="48" y="192" fill="#000"/><rect width="6" height="6" x="54" y="192" fill="#000"/><rect width="6" height="6" x="60" y="192" fill="#000"/><rect width="6" height="6" x="96" y="192" fill="#000"/><rect width="6" height="6" x="114" y="192" fill="#000"/><rect width="6" height="6" x="138" y="192" fill="#000"/><rect width="6" height="6" x="168" y="192" fill="#000"/><rect width="6" height="6" x="174" y="192" fill="#000"/><rect width="6" height="6" x="180" y="192" fill="#000"/><rect width="6" height="6" x="186" y="192" fill="#000"/><rect width="6" height="6" x="192" y="192" fill="#000"/><rect width="6" height="6" x="198" y="192" fill="#000"/><rect width="6" height="6" x="204" y="192" fill="#000"/><rect width="6" height="6" x="0" y="198" fill="#000"/><rect width="6" height="6" x="12" y="198" fill="#000"/><rect width="6" height="6" x="18" y="198" fill="#000"/><rect width="6" height="6" x="24" y="198" fill="#000"/><rect width="6" height="6" x="36" y="198" fill="#000"/><rect width="6" height="6" x="60" y="198" fill="#000"/><rect width="6" height="6" x="78" y="198" fill="#000"/><rect width="6" height="6" x="84" y="198" fill="#000"/><rect width="6" height="6" x="96" y="198" fill="#000"/><rect width="6" height="6" x="102" y="198" fill="#000"/><rect width="6" height="6" x="132" y="198" fill="#000"/><rect width="6" height="6" x="144" y="198" fill="#000"/><rect width="6" height="6" x="150" y="198" fill="#000"/><rect width="6" height="6" x="156" y="198" fill="#000"/><rect width="6" height="6" x="162" y="198" fill="#000"/><rect width="6" height="6" x="180" y="198" fill="#000"/><rect width="6" height="6" x="204" y="198" fill="#000"/><rect width="6" height="6" x="0" y="204" fill="#000"/><rect width="6" height="6" x="12" y="204" fill="#000"/><rect width="6" height="6" x="18" y="204" fill="#000"/><rect width="6" height="6" x="24" y="204" fill="#000"/><rect width="6" height="6" x="36" y="204" fill="#000"/><rect width="6" height="6" x="66" y="204" fill="#000"/><rect width="6" height="6" x="72" y="204" fill="#000"/><rect width="6" height="6" x="96" y="204" fill="#000"/><rect width="6" height="6" x="102" y="204" fill="#000"/><rect width="6" height="6" x="108" y="204" fill="#000"/><rect width="6" height="6" x="120" y="204" fill="#000"/><rect width="6" height="6" x="132" y="204" fill="#000"/><rect width="6" height="6" x="138" y="204" fill="#000"/><rect width="6" height="6" x="144" y="204" fill="#000"/><rect width="6" height="6" x="156" y="204" fill="#000"/><rect width="6" height="6" x="174" y="204" fill="#000"/><rect width="6" height="6" x="180" y="204" fill="#000"/><rect width="6" height="6" x="198" y="204" fill="#000"/><rect width="6" height="6" x="210" y="204" fill="#000"/><rect width="6" height="6" x="0" y="210" fill="#000"/><rect width="6" height="6" x="36" y="210" fill="#000"/><rect width="6" height="6" x="54" y="210" fill="#000"/><rect width="6" height="6" x="60" y="210" fill="#000"/><rect width="6" height="6" x="66" y="210" fill="#000"/><rect width="6" height="6" x="72" y="210" fill="#000"/><rect width="6" height="6" x="90" y="210" fill="#000"/><rect width="6" height="6" x="96" y="210" fill="#000"/><rect width="6" height="6" x="102" y="210" fill="#000"/><rect width="6" height="6" x="114" y="210" fill="#000"/><rect width="6" height="6" x="126" y="210" fill="#000"/><rect width="6" height="6" x="132" y="210" fill="#000"/><rect width="6" height="6" x="138" y="210" fill="#000"/><rect width="6" height="6" x="174" y="210" fill="#000"/><rect width="6" height="6" x="186" y="210" fill="#000"/><rect width="6" height="6" x="192" y="210" fill="#000"/><rect width="6" height="6" x="198" y="210" fill="#000"/><rect width="6" height="6" x="204" y="210" fill="#000"/><rect width="6" height="6" x="210" y="210" fill="#000"/><rect width="6" height="6" x="0" y="216" fill="#000"/><rect width="6" height="6" x="6" y="216" fill="#000"/><rect width="6" height="6" x="12" y="216" fill="#000"/><rect width="6" height="6" x="18" y="216" fill="#000"/><rect width="6" height="6" x="24" y="216" fill="#000"/><rect width="6" height="6" x="30" y="216" fill="#000"/><rect width="6" height="6" x="36" y="216" fill="#000"/><rect width="6" height="6" x="54" y="216" fill="#000"/><rect width="6" height="6" x="60" y="216" fill="#000"/><rect width="6" height="6" x="66" y="216" fill="#000"/><rect width="6" height="6" x="72" y="216" fill="#000"/><rect width="6" height="6" x="78" y="216" fill="#000"/><rect width="6" height="6" x="90" y="216" fill="#000"/><rect width="6" height="6" x="96" y="216" fill="#000"/><rect width="6" height="6" x="108" y="216" fill="#000"/><rect width="6" height="6" x="114" y="216" fill="#000"/><rect width="6" height="6" x="126" y="216" fill="#000"/><rect width="6" height="6" x="132" y="216" fill="#000"/><rect width="6" height="6" x="144" y="216" fill="#000"/><rect width="6" height="6" x="156" y="216" fill="#000"/><rect width="6" height="6" x="180" y="216" fill="#000"/><rect width="6" height="6" x="198" y="216" fill="#000"/><rect width="6" height="6" x="204" y="216" fill="#000"/><rect width="6" height="6" x="210" y="216" fill="#000"/><rect width="6" height="6" x="216" y="216" fill="#000"/></svg>