<?xml version="1.0" standalone="yes"?><svg version="1.1" xmlns="http://www.w3.org/2000/svg" xmlns:xlink="http://www.w3.org/1999/xlink" xmlns:ev="http://www.w3.org/2001/xml-events" width="222" height="222" shape-rendering="crispEdges"><rect width="6" height="6" x="0" y="0" fill="#000"/><rect width="6" height="6" x="6" y="0" fill="#000"/><rect width="6" height="6" x="12" y="0" fill="#000"/><rect width="6" height="6" x="18" y="0" fill="#000"/><rect width="6" height="6" x="24" y="0" fill="#000"/><rect width="6" height="6" x="30" y="0" fill="#000"/><rect width="6" height="6" x="36" y="0" fill="#000"/><rect width="6" height="6" x="48" y="0" fill="#000"/><rect width="6" height="6" x="60" y="0" fill="#000"/><rect width="6" height="6" x="66" y="0" fill="#000"/><rect width="6" height="6" x="84" y="0" fill="#000"/><rect width="6" height="6" x="90" y="0" fill="#000"/><rect width="6" height="6" x="102" y="0" fill="#000"/><rect width="6" height="6" x="108" y="0" fill="#000"/><rect width="6" height="6" x="138" y="0" fill="#000"/><rect width="6" height="6" x="168" y="0" fill="#000"/><rect width="6" height="6" x="180" y="0" fill="#000"/><rect width="6" height="6" x="186" y="0" fill="#000"/><rect width="6" height="6" x="192" y="0" fill="#000"/><rect width="6" height="6" x="198" y="0" fill="#000"/><rect width="6" height="6" x="204" y="0" fill="#000"/><rect width="6" height="6" x="210" y="0" fill="#000"/><rect width="6" height="6" x="216" y="0" fill="#000"/><rect width="6" height="6" x="0" y="6" fill="#000"/><rect width="6" height="6" x="36" y="6" fill="#000"/><rect width="6" height="6" x="48" y="6" fill="#000"/><rect width="6" height="6" x="72" y="6" fill="#000"/><rect width="6" height="6" x="90" y="6" fill="#000"/><rect width="6" height="6" x="96" y="6" fill="#000"/><rect width="6" height="6" x="108" y="6" fill="#000"/><rect width="6" height="6" x="114" y="6" fill="#000"/><rect width="6" height="6" x="120" y="6" fill="#000"/><rect width="6" height="6" x="126" y="6" fill="#000"/><rect width="6" height="6" x="132" y="6" fill="#000"/><rect width="6" height="6" x="138" y="6" fill="#000"/><rect width="6" height="6" x="156" y="6" fill="#000"/><rect width="6" height="6" x="162" y="6" fill="#000"/><rect width="6" height="6" x="168" y="6" fill="#000"/><rect width="6" height="6" x="180" y="6" fill="#000"/><rect width="6" height="6" x="216" y="6" fill="#000"/><rect width="6" height="6" x="0" y="12" fill="#000"/><rect width="6" height="6" x="12" y="12" fill="#000"/><rect width="6" height="6" x="18" y="12" fill="#000"/><rect width="6" height="6" x="24" y="12" fill="#000"/><rect width="6" height="6" x="36" y="12" fill="#000"/><rect width="6" height="6" x="48" y="12" fill="#000"/><rect width="6" height="6" x="72" y="12" fill="#000"/><rect width="6" height="6" x="78" y="12" fill="#000"/><rect width="6" height="6" x="84" y="12" fill="#000"/><rect width="6" height="6" x="90" y="12" fill="#000"/><rect width="6" height="6" x="102" y="12" fill="#000"/><rect width="6" height="6" x="132" y="12" fill="#000"/><rect width="6" height="6" x="138" y="12" fill="#000"/><rect width="6" height="6" x="144" y="12" fill="#000"/><rect width="6" height="6" x="156" y="12" fill="#000"/><rect width="6" height="6" x="168" y="12" fill="#000"/><rect width="6" height="6" x="180" y="12" fill="#000"/><rect width="6" height="6" x="192" y="12" fill="#000"/><rect width="6" height="6" x="198" y="12" fill="#000"/><rect width="6" height="6" x="204" y="12" fill="#000"/><rect width="6" height="6" x="216" y="12" fill="#000"/><rect width="6" height="6" x="0" y="18" fill="#000"/><rect width="6" height="6" x="12" y="18" fill="#000"/><rect width="6" height="6" x="18" y="18" fill="#000"/><rect width="6" height="6" x="24" y="18" fill="#000"/><rect width="6" height="6" x="36" y="18" fill="#000"/><rect width="6" height="6" x="66" y="18" fill="#000"/><rect width="6" height="6" x="78" y="18" fill="#000"/><rect width="6" height="6" x="96" y="18" fill="#000"/><rect width="6" height="6" x="102" y="18" fill="#000"/><rect width="6" height="6" x="120" y="18" fill="#000"/><rect width="6" height="6" x="138" y="18" fill="#000"/><rect width="6" height="6" x="150" y="18" fill="#000"/><rect width="6" height="6" x="156" y="18" fill="#000"/><rect width="6" height="6" x="168" y="18" fill="#000"/><rect width="6" height="6" x="180" y="18" fill="#000"/><rect width="6" height="6" x="192" y="18" fill="#000"/><rect width="6" height="6" x="198" y="18" fill="#000"/><rect width="6" height="6" x="204" y="18" fill="#000"/><rect width="6" height="6" x="216" y="18" fill="#000"/><rect width="6" height="6" x="0" y="24" fill="#000"/><rect width="6" height="6" x="12" y="24" fill="#000"/><rect width="6" height="6" x="18" y="24" fill="#000"/><rect width="6" height="6" x="24" y="24" fill="#000"/><rect width="6" height="6" x="36" y="24" fill="#000"/><rect width="6" height="6" x="54" y="24" fill="#000"/><rect width="6" height="6" x="72" y="24" fill="#000"/><rect width="6" height="6" x="78" y="24" fill="#000"/><rect width="6" height="6" x="90" y="24" fill="#000"/><rect width="6" height="6" x="96" y="24" fill="#000"/><rect width="6" height="6" x="102" y="24" fill="#000"/><rect width="6" height="6" x="114" y="24" fill="#000"/><rect width="6" height="6" x="120" y="24" fill="#000"/><rect width="6" height="6" x="144" y="24" fill="#000"/><rect width="6" height="6" x="156" y="24" fill="#000"/><rect width="6" height="6" x="162" y="24" fill="#000"/><rect width="6" height="6" x="168" y="24" fill="#000"/><rect width="6" height="6" x="180" y="24" fill="#000"/><rect width="6" height="6" x="192" y="24" fill="#000"/><rect width="6" height="6" x="198" y="24" fill="#000"/><rect width="6" height="6" x="204" y="24" fill="#000"/><rect width="6" height="6" x="216" y="24" fill="#000"/><rect width="6" height="6" x="0" y="30" fill="#000"/><rect width="6" height="6" x="36" y="30" fill="#000"/><rect width="6" height="6" x="48" y="30" fill="#000"/><rect width="6" height="6" x="84" y="30" fill="#000"/><rect width="6" height="6" x="90" y="30" fill="#000"/><rect width="6" height="6" x="120" y="30" fill="#000"/><rect width="6" height="6" x="138" y="30" fill="#000"/><rect width="6" height="6" x="162" y="30" fill="#000"/><rect width="6" height="6" x="168" y="30" fill="#000"/><rect width="6" height="6" x="180" y="30" fill="#000"/><rect width="6" height="6" x="216" y="30" fill="#000"/><rect width="6" height="6" x="0" y="36" fill="#000"/><rect width="6" height="6" x="6" y="36" fill="#000"/><rect width="6" height="6" x="12" y="36" fill="#000"/><rect width="6" height="6" x="18" y="36" fill="#000"/><rect width="6" height="6" x="24" y="36" fill="#000"/><rect width="6" height="6" x="30" y="36" fill="#000"/><rect width="6" height="6" x="36" y="36" fill="#000"/><rect width="6" height="6" x="48" y="36" fill="#000"/><rect width="6" height="6" x="60" y="36" fill="#000"/><rect width="6" height="6" x="72" y="36" fill="#000"/><rect width="6" height="6" x="84" y="36" fill="#000"/><rect width="6" height="6" x="96" y="36" fill="#000"/><rect width="6" height="6" x="108" y="36" fill="#000"/><rect width="6" height="6" x="120" y="36" fill="#000"/><rect width="6" height="6" x="132" y="36" fill="#000"/><rect width="6" height="6" x="144" y="36" fill="#000"/><rect width="6" height="6" x="156" y="36" fill="#000"/><rect width="6" height="6" x="168" y="36" fill="#000"/><rect width="6" height="6" x="180" y="36" fill="#000"/><rect width="6" height="6" x="186" y="36" fill="#000"/><rect width="6" height="6" x="192" y="36" fill="#000"/><rect width="6" height="6" x="198" y="36" fill="#000"/><rect width="6" height="6" x="204" y="36" fill="#000"/><rect width="6" height="6" x="210" y="36" fill="#000"/><rect width="6" height="6" x="216" y="36" fill="#000"/><rect width="6" height="6" x="48" y="42" fill="#000"/><rect width="6" height="6" x="54" y="42" fill="#000"/><rect width="6" height="6" x="72" y="42" fill="#000"/><rect width="6" height="6" x="78" y="42" fill="#000"/><rect width="6" height="6" x="102" y="42" fill="#000"/><rect width="6" height="6" x="114" y="42" fill="#000"/><rect width="6" height="6" x="120" y="42" fill="#000"/><rect width="6" height="6" x="132" y="42" fill="#000"/><rect width="6" height="6" x="144" y="42" fill="#000"/><rect width="6" height="6" x="156" y="42" fill="#000"/><rect width="6" height="6" x="168" y="42" fill="#000"/><rect width="6" height="6" x="12" y="48" fill="#000"/><rect width="6" height="6" x="18" y="48" fill="#000"/><rect width="6" height="6" x="24" y="48" fill="#000"/><rect width="6" height="6" x="36" y="48" fill="#000"/><rect width="6" height="6" x="48" y="48" fill="#000"/><rect width="6" height="6" x="54" y="48" fill="#000"/><rect width="6" height="6" x="72" y="48" fill="#000"/><rect width="6" height="6" x="90" y="48" fill="#000"/><rect width="6" height="6" x="108" y="48" fill="#000"/><rect width="6" height="6" x="114" y="48" fill="#000"/><rect width="6" height="6" x="120" y="48" fill="#000"/><rect width="6" height="6" x="144" y="48" fill="#000"/><rect width="6" height="6" x="174" y="48" fill="#000"/><rect width="6" height="6" x="180" y="48" fill="#000"/><rect width="6" height="6" x="186" y="48" fill="#000"/><rect width="6" height="6" x="204" y="48" fill="#000"/><rect width="6" height="6" x="210" y="48" fill="#000"/><rect width="6" height="6" x="216" y="48" fill="#000"/><rect width="6" height="6" x="6" y="54" fill="#000"/><rect width="6" height="6" x="18" y="54" fill="#000"/><rect width="6" height="6" x="48" y="54" fill="#000"/><rect width="6" height="6" x="60" y="54" fill="#000"/><rect width="6" height="6" x="78" y="54" fill="#000"/><rect width="6" height="6" x="84" y="54" fill="#000"/><rect width="6" height="6" x="90" y="54" fill="#000"/><rect width="6" height="6" x="96" y="54" fill="#000"/><rect width="6" height="6" x="114" y="54" fill="#000"/><rect width="6" height="6" x="120" y="54" fill="#000"/><rect width="6" height="6" x="126" y="54" fill="#000"/><rect width="6" height="6" x="132" y="54" fill="#000"/><rect width="6" height="6" x="138" y="54" fill="#000"/><rect width="6" height="6" x="144" y="54" fill="#000"/><rect width="6" height="6" x="150" y="54" fill="#000"/><rect width="6" height="6" x="156" y="54" fill="#000"/><rect width="6" height="6" x="162" y="54" fill="#000"/><rect width="6" height="6" x="168" y="54" fill="#000"/><rect width="6" height="6" x="180" y="54" fill="#000"/><rect width="6" height="6" x="204" y="54" fill="#000"/><rect width="6" height="6" x="210" y="54" fill="#000"/><rect width="6" height="6" x="0" y="60" fill="#000"/><rect width="6" height="6" x="12" y="60" fill="#000"/><rect width="6" height="6" x="18" y="60" fill="#000"/><rect width="6" height="6" x="36" y="60" fill="#000"/><rect width="6" height="6" x="42" y="60" fill="#000"/><rect width="6" height="6" x="48" y="60" fill="#000"/><rect width="6" height="6" x="54" y="60" fill="#000"/><rect width="6" height="6" x="66" y="60" fill="#000"/><rect width="6" height="6" x="90" y="60" fill="#000"/><rect width="6" height="6" x="114" y="60" fill="#000"/><rect width="6" height="6" x="126" y="60" fill="#000"/><rect width="6" height="6" x="132" y="60" fill="#000"/><rect width="6" height="6" x="150" y="60" fill="#000"/><rect width="6" height="6" x="180" y="60" fill="#000"/><rect width="6" height="6" x="186" y="60" fill="#000"/><rect width="6" height="6" x="204" y="60" fill="#000"/><rect width="6" height="6" x="210" y="60" fill="#000"/><rect width="6" height="6" x="216" y="60" fill="#000"/><rect width="6" height="6" x="6" y="66" fill="#000"/><rect width="6" height="6" x="12" y="66" fill="#000"/><rect width="6" height="6" x="18" y="66" fill="#000"/><rect width="6" height="6" x="42" y="66" fill="#000"/><rect width="6" height="6" x="48" y="66" fill="#000"/><rect width="6" height="6" x="60" y="66" fill="#000"/><rect width="6" height="6" x="66" y="66" fill="#000"/><rect width="6" height="6" x="84" y="66" fill="#000"/><rect width="6" height="6" x="96" y="66" fill="#000"/><rect width="6" height="6" x="120" y="66" fill="#000"/><rect width="6" height="6" x="126" y="66" fill="#000"/><rect width="6" height="6" x="132" y="66" fill="#000"/><rect width="6" height="6" x="138" y="66" fill="#000"/><rect width="6" height="6" x="144" y="66" fill="#000"/><rect width="6" height="6" x="156" y="66" fill="#000"/><rect width="6" height="6" x="168" y="66" fill="#000"/><rect width="6" height="6" x="180" y="66" fill="#000"/><rect width="6" height="6" x="216" y="66" fill="#000"/><rect width="6" height="6" x="18" y="72" fill="#000"/><rect width="6" height="6" x="30" y="72" fill="#000"/><rect width="6" height="6" x="36" y="72" fill="#000"/><rect width="6" height="6" x="60" y="72" fill="#000"/><rect width="6" height="6" x="66" y="72" fill="#000"/><rect width="6" height="6" x="72" y="72" fill="#000"/><rect width="6" height="6" x="78" y="72" fill="#000"/><rect width="6" height="6" x="84" y="72" fill="#000"/><rect width="6" height="6" x="90" y="72" fill="#000"/><rect width="6" height="6" x="96" y="72" fill="#000"/><rect width="6" height="6" x="102" y="72" fill="#000"/><rect width="6" height="6" x="138" y="72" fill="#000"/><rect width="6" height="6" x="150" y="72" fill="#000"/><rect width="6" height="6" x="180" y="72" fill="#000"/><rect width="6" height="6" x="186" y="72" fill="#000"/><rect width="6" height="6" x="192" y="72" fill="#000"/><rect width="6" height="6" x="198" y="72" fill="#000"/><rect width="6" height="6" x="204" y="72" fill="#000"/><rect width="6" height="6" x="210" y="72" fill="#000"/><rect width="6" height="6" x="216" y="72" fill="#000"/><rect width="6" height="6" x="0" y="78" fill="#000"/><rect width="6" height="6" x="6" y="78" fill="#000"/><rect width="6" height="6" x="12" y="78" fill="#000"/><rect width="6" height="6" x="30" y="78" fill="#000"/><rect width="6" height="6" x="54" y="78" fill="#000"/><rect width="6" height="6" x="78" y="78" fill="#000"/><rect width="6" height="6" x="84" y="78" fill="#000"/><rect width="6" height="6" x="90" y="78" fill="#000"/><rect width="6" height="6" x="96" y="78" fill="#000"/><rect width="6" height="6" x="102" y="78" fill="#000"/><rect width="6" height="6" x="108" y="78" fill="#000"/><rect width="6" height="6" x="114" y="78" fill="#000"/><rect width="6" height="6" x="120" y="78" fill="#000"/><rect width="6" height="6" x="126" y="78" fill="#000"/><rect width="6" height="6" x="156" y="78" fill="#000"/><rect width="6" height="6" x="168" y="78" fill="#000"/><rect width="6" height="6" x="174" y="78" fill="#000"/><rect width="6" height="6" x="198" y="78" fill="#000"/><rect width="6" height="6" x="204" y="78" fill="#000"/><rect width="6" height="6" x="210" y="78" fill="#000"/><rect width="6" height="6" x="216" y="78" fill="#000"/><rect width="6" height="6" x="0" y="84" fill="#000"/><rect width="6" height="6" x="30" y="84" fill="#000"/><rect width="6" height="6" x="36" y="84" fill="#000"/><rect width="6" height="6" x="54" y="84" fill="#000"/><rect width="6" height="6" x="60" y="84" fill="#000"/><rect width="6" height="6" x="72" y="84" fill="#000"/><rect width="6" height="6" x="90" y="84" fill="#000"/><rect width="6" height="6" x="132" y="84" fill="#000"/><rect width="6" height="6" x="138" y="84" fill="#000"/><rect width="6" height="6" x="144" y="84" fill="#000"/><rect width="6" height="6" x="162" y="84" fill="#000"/><rect width="6" height="6" x="180" y="84" fill="#000"/><rect width="6" height="6" x="186" y="84" fill="#000"/><rect width="6" height="6" x="198" y="84" fill="#000"/><rect width="6" height="6" x="210" y="84" fill="#000"/><rect width="6" height="6" x="216" y="84" fill="#000"/><rect width="6" height="6" x="0" y="90" fill="#000"/><rect width="6" height="6" x="12" y="90" fill="#000"/><rect width="6" height="6" x="30" y="90" fill="#000"/><rect width="6" height="6" x="42" y="90" fill="#000"/><rect width="6" height="6" x="72" y="90" fill="#000"/><rect width="6" height="6" x="84" y="90" fill="#000"/><rect width="6" height="6" x="90" y="90" fill="#000"/><rect width="6" height="6" x="96" y="90" fill="#000"/><rect width="6" height="6" x="102" y="90" fill="#000"/><rect width="6" height="6" x="114" y="90" fill="#000"/><rect width="6" height="6" x="126" y="90" fill="#000"/><rect width="6" height="6" x="132" y="90" fill="#000"/><rect width="6" height="6" x="156" y="90" fill="#000"/><rect width="6" height="6" x="162" y="90" fill="#000"/><rect width="6" height="6" x="168" y="90" fill="#000"/><rect width="6" height="6" x="180" y="90" fill="#000"/><rect width="6" height="6" x="210" y="90" fill="#000"/><rect width="6" height="6" x="216" y="90" fill="#000"/><rect width="6" height="6" x="30" y="96" fill="#000"/><rect width="6" height="6" x="36" y="96" fill="#000"/><rect width="6" height="6" x="42" y="96" fill="#000"/><rect width="6" height="6" x="48" y="96" fill="#000"/><rect width="6" height="6" x="60" y="96" fill="#000"/><rect width="6" height="6" x="96" y="96" fill="#000"/><rect width="6" height="6" x="108" y="96" fill="#000"/><rect width="6" height="6" x="114" y="96" fill="#000"/><rect width="6" height="6" x="126" y="96" fill="#000"/><rect width="6" height="6" x="132" y="96" fill="#000"/><rect width="6" height="6" x="138" y="96" fill="#000"/><rect width="6" height="6" x="144" y="96" fill="#000"/><rect width="6" height="6" x="150" y="96" fill="#000"/><rect width="6" height="6" x="156" y="96" fill="#000"/><rect width="6" height="6" x="162" y="96" fill="#000"/><rect width="6" height="6" x="180" y="96" fill="#000"/><rect width="6" height="6" x="186" y="96" fill="#000"/><rect width="6" height="6" x="192" y="96" fill="#000"/><rect width="6" height="6" x="204" y="96" fill="#000"/><rect width="6" height="6" x="216" y="96" fill="#000"/><rect width="6" height="6" x="12" y="102" fill="#000"/><rect width="6" height="6" x="24" y="102" fill="#000"/><rect width="6" height="6" x="30" y="102" fill="#000"/><rect width="6" height="6" x="42" y="102" fill="#000"/><rect width="6" height="6" x="48" y="102" fill="#000"/><rect width="6" height="6" x="60" y="102" fill="#000"/><rect width="6" height="6" x="96" y="102" fill="#000"/><rect width="6" height="6" x="156" y="102" fill="#000"/><rect width="6" height="6" x="174" y="102" fill="#000"/><rect width="6" height="6" x="204" y="102" fill="#000"/><rect width="6" height="6" x="0" y="108" fill="#000"/><rect width="6" height="6" x="6" y="108" fill="#000"/><rect width="6" height="6" x="18" y="108" fill="#000"/><rect width="6" height="6" x="24" y="108" fill="#000"/><rect width="6" height="6" x="36" y="108" fill="#000"/><rect width="6" height="6" x="42" y="108" fill="#000"/><rect width="6" height="6" x="48" y="108" fill="#000"/><rect width="6" height="6" x="60" y="108" fill="#000"/><rect width="6" height="6" x="72" y="108" fill="#000"/><rect width="6" height="6" x="84" y="108" fill="#000"/><rect width="6" height="6" x="96" y="108" fill="#000"/><rect width="6" height="6" x="102" y="108" fill="#000"/><rect width="6" height="6" x="108" y="108" fill="#000"/><rect width="6" height="6" x="114" y="108" fill="#000"/><rect width="6" height="6" x="120" y="108" fill="#000"/><rect width="6" height="6" x="126" y="108" fill="#000"/><rect width="6" height="6" x="132" y="108" fill="#000"/><rect width="6" height="6" x="138" y="108" fill="#000"/><rect width="6" height="6" x="144" y="108" fill="#000"/><rect width="6" height="6" x="150" y="108" fill="#000"/><rect width="6" height="6" x="162" y="108" fill="#000"/><rect width="6" height="6" x="186" y="108" fill="#000"/><rect width="6" height="6" x="192" y="108" fill="#000"/><rect width="6" height="6" x="210" y="108" fill="#000"/><rect width="6" height="6" x="216" y="108" fill="#000"/><rect width="6" height="6" x="18" y="114" fill="#000"/><rect width="6" height="6" x="42" y="114" fill="#000"/><rect width="6" height="6" x="54" y="114" fill="#000"/><rect width="6" height="6" x="60" y="114" fill="#000"/><rect width="6" height="6" x="90" y="114" fill="#000"/><rect width="6" height="6" x="120" y="114" fill="#000"/><rect width="6" height="6" x="144" y="114" fill="#000"/><rect width="6" height="6" x="156" y="114" fill="#000"/><rect width="6" height="6" x="162" y="114" fill="#000"/><rect width="6" height="6" x="180" y="114" fill="#000"/><rect width="6" height="6" x="198" y="114" fill="#000"/><rect width="6" height="6" x="210" y="114" fill="#000"/><rect width="6" height="6" x="216" y="114" fill="#000"/><rect width="6" height="6" x="0" y="120" fill="#000"/><rect width="6" height="6" x="6" y="120" fill="#000"/><rect width="6" height="6" x="12" y="120" fill="#000"/><rect width="6" height="6" x="30" y="120" fill="#000"/><rect width="6" height="6" x="36" y="120" fill="#000"/><rect width="6" height="6" x="48" y="120" fill="#000"/><rect width="6" height="6" x="60" y="120" fill="#000"/><rect width="6" height="6" x="102" y="120" fill="#000"/><rect width="6" height="6" x="108" y="120" fill="#000"/><rect width="6" height="6" x="114" y="120" fill="#000"/><rect width="6" height="6" x="126" y="120" fill="#000"/><rect width="6" height="6" x="144" y="120" fill="#000"/><rect width="6" height="6" x="150" y="120" fill="#000"/><rect width="6" height="6" x="156" y="120" fill="#000"/><rect width="6" height="6" x="162" y="120" fill="#000"/><rect width="6" height="6" x="180" y="120" fill="#000"/><rect width="6" height="6" x="186" y="120" fill="#000"/><rect width="6" height="6" x="192" y="120" fill="#000"/><rect width="6" height="6" x="204" y="120" fill="#000"/><rect width="6" height="6" x="210" y="120" fill="#000"/><rect width="6" height="6" x="216" y="120" fill="#000"/><rect width="6" height="6" x="0" y="126" fill="#000"/><rect width="6" height="6" x="24" y="126" fill="#000"/><rect width="6" height="6" x="42" y="126" fill="#000"/><rect width="6" height="6" x="48" y="126" fill="#000"/><rect width="6" height="6" x="66" y="126" fill="#000"/><rect width="6" height="6" x="78" y="126" fill="#000"/><rect width="6" height="6" x="96" y="126" fill="#000"/><rect width="6" height="6" x="108" y="126" fill="#000"/><rect width="6" height="6" x="126" y="126" fill="#000"/><rect width="6" height="6" x="138" y="126" fill="#000"/><rect width="6" height="6" x="150" y="126" fill="#000"/><rect width="6" height="6" x="156" y="126" fill="#000"/><rect width="6" height="6" x="186" y="126" fill="#000"/><rect width="6" height="6" x="198" y="126" fill="#000"/><rect width="6" height="6" x="6" y="132" fill="#000"/><rect width="6" height="6" x="12" y="132" fill="#000"/><rect width="6" height="6" x="18" y="132" fill="#000"/><rect width="6" height="6" x="36" y="132" fill="#000"/><rect width="6" height="6" x="42" y="132" fill="#000"/><rect width="6" height="6" x="48" y="132" fill="#000"/><rect width="6" height="6" x="60" y="132" fill="#000"/><rect width="6" height="6" x="78" y="132" fill="#000"/><rect width="6" height="6" x="84" y="132" fill="#000"/><rect width="6" height="6" x="102" y="132" fill="#000"/><rect width="6" height="6" x="120" y="132" fill="#000"/><rect width="6" height="6" x="126" y="132" fill="#000"/><rect width="6" height="6" x="132" y="132" fill="#000"/><rect width="6" height="6" x="138" y="132" fill="#000"/><rect width="6" height="6" x="144" y="132" fill="#000"/><rect width="6" height="6" x="150" y="132" fill="#000"/><rect width="6" height="6" x="156" y="132" fill="#000"/><rect width="6" height="6" x="162" y="132" fill="#000"/><rect width="6" height="6" x="168" y="132" fill="#000"/><rect width="6" height="6" x="174" y="132" fill="#000"/><rect width="6" height="6" x="204" y="132" fill="#000"/><rect width="6" height="6" x="210" y="132" fill="#000"/><rect width="6" height="6" x="216" y="132" fill="#000"/><rect width="6" height="6" x="0" y="138" fill="#000"/><rect width="6" height="6" x="6" y="138" fill="#000"/><rect width="6" height="6" x="18" y="138" fill="#000"/><rect width="6" height="6" x="24" y="138" fill="#000"/><rect width="6" height="6" x="42" y="138" fill="#000"/><rect width="6" height="6" x="48" y="138" fill="#000"/><rect width="6" height="6" x="90" y="138" fill="#000"/><rect width="6" height="6" x="102" y="138" fill="#000"/><rect width="6" height="6" x="108" y="138" fill="#000"/><rect width="6" height="6" x="114" y="138" fill="#000"/><rect width="6" height="6" x="132" y="138" fill="#000"/><rect width="6" height="6" x="150" y="138" fill="#000"/><rect width="6" height="6" x="168" y="138" fill="#000"/><rect width="6" height="6" x="186" y="138" fill="#000"/><rect width="6" height="6" x="198" y="138" fill="#000"/><rect width="6" height="6" x="210" y="138" fill="#000"/><rect width="6" height="6" x="216" y="138" fill="#000"/><rect width="6" height="6" x="0" y="144" fill="#000"/><rect width="6" height="6" x="24" y="144" fill="#000"/><rect width="6" height="6" x="30" y="144" fill="#000"/><rect width="6" height="6" x="36" y="144" fill="#000"/><rect width="6" height="6" x="48" y="144" fill="#000"/><rect width="6" height="6" x="60" y="144" fill="#000"/><rect width="6" height="6" x="72" y="144" fill="#000"/><rect width="6" height="6" x="84" y="144" fill="#000"/><rect width="6" height="6" x="114" y="144" fill="#000"/><rect width="6" height="6" x="120" y="144" fill="#000"/><rect width="6" height="6" x="126" y="144" fill="#000"/><rect width="6" height="6" x="138" y="144" fill="#000"/><rect width="6" height="6" x="144" y="144" fill="#000"/><rect width="6" height="6" x="156" y="144" fill="#000"/><rect width="6" height="6" x="168" y="144" fill="#000"/><rect width="6" height="6" x="174" y="144" fill="#000"/><rect width="6" height="6" x="192" y="144" fill="#000"/><rect width="6" height="6" x="198" y="144" fill="#000"/><rect width="6" height="6" x="204" y="144" fill="#000"/><rect width="6" height="6" x="210" y="144" fill="#000"/><rect width="6" height="6" x="0" y="150" fill="#000"/><rect width="6" height="6" x="6" y="150" fill="#000"/><rect width="6" height="6" x="12" y="150" fill="#000"/><rect width="6" height="6" x="30" y="150" fill="#000"/><rect width="6" height="6" x="48" y="150" fill="#000"/><rect width="6" height="6" x="54" y="150" fill="#000"/><rect width="6" height="6" x="60" y="150" fill="#000"/><rect width="6" height="6" x="66" y="150" fill="#000"/><rect width="6" height="6" x="84" y="150" fill="#000"/><rect width="6" height="6" x="90" y="150" fill="#000"/><rect width="6" height="6" x="108" y="150" fill="#000"/><rect width="6" height="6" x="114" y="150" fill="#000"/><rect width="6" height="6" x="120" y="150" fill="#000"/><rect width="6" height="6" x="150" y="150" fill="#000"/><rect width="6" height="6" x="162" y="150" fill="#000"/><rect width="6" height="6" x="180" y="150" fill="#000"/><rect width="6" height="6" x="186" y="150" fill="#000"/><rect width="6" height="6" x="198" y="150" fill="#000"/><rect width="6" height="6" x="204" y="150" fill="#000"/><rect width="6" height="6" x="210" y="150" fill="#000"/><rect width="6" height="6" x="0" y="156" fill="#000"/><rect width="6" height="6" x="12" y="156" fill="#000"/><rect width="6" height="6" x="30" y="156" fill="#000"/><rect width="6" height="6" x="36" y="156" fill="#000"/><rect width="6" height="6" x="42" y="156" fill="#000"/><rect width="6" height="6" x="48" y="156" fill="#000"/><rect width="6" height="6" x="54" y="156" fill="#000"/><rect width="6" height="6" x="60" y="156" fill="#000"/><rect width="6" height="6" x="66" y="156" fill="#000"/><rect width="6" height="6" x="72" y="156" fill="#000"/><rect width="6" height="6" x="78" y="156" fill="#000"/><rect width="6" height="6" x="84" y="156" fill="#000"/><rect width="6" height="6" x="90" y="156" fill="#000"/><rect width="6" height="6" x="108" y="156" fill="#000"/><rect width="6" height="6" x="114" y="156" fill="#000"/><rect width="6" height="6" x="132" y="156" fill="#000"/><rect width="6" height="6" x="138" y="156" fill="#000"/><rect width="6" height="6" x="144" y="156" fill="#000"/><rect width="6" height="6" x="150" y="156" fill="#000"/><rect width="6" height="6" x="162" y="156" fill="#000"/><rect width="6" height="6" x="168" y="156" fill="#000"/><rect width="6" height="6" x="186" y="156" fill="#000"/><rect width="6" height="6" x="192" y="156" fill="#000"/><rect width="6" height="6" x="210" y="156" fill="#000"/><rect width="6" height="6" x="216" y="156" fill="#000"/><rect width="6" height="6" x="0" y="162" fill="#000"/><rect width="6" height="6" x="12" y="162" fill="#000"/><rect width="6" height="6" x="24" y="162" fill="#000"/><rect width="6" height="6" x="42" y="162" fill="#000"/><rect width="6" height="6" x="60" y="162" fill="#000"/><rect width="6" height="6" x="66" y="162" fill="#000"/><rect width="6" height="6" x="72" y="162" fill="#000"/><rect width="6" height="6" x="78" y="162" fill="#000"/><rect width="6" height="6" x="90" y="162" fill="#000"/><rect width="6" height="6" x="102" y="162" fill="#000"/><rect width="6" height="6" x="126" y="162" fill="#000"/><rect width="6" height="6" x="138" y="162" fill="#000"/><rect width="6" height="6" x="162" y="162" fill="#000"/><rect width="6" height="6" x="186" y="162" fill="#000"/><rect width="6" height="6" x="210" y="162" fill="#000"/><rect width="6" height="6" x="216" y="162" fill="#000"/><rect width="6" height="6" x="0" y="168" fill="#000"/><rect width="6" height="6" x="12" y="168" fill="#000"/><rect width="6" height="6" x="18" y="168" fill="#000"/><rect width="6" height="6" x="36" y="168" fill="#000"/><rect width="6" height="6" x="42" y="168" fill="#000"/><rect width="6" height="6" x="48" y="168" fill="#000"/><rect width="6" height="6" x="54" y="168" fill="#000"/><rect width="6" height="6" x="60" y="168" fill="#000"/><rect width="6" height="6" x="72" y="168" fill="#000"/><rect width="6" height="6" x="78" y="168" fill="#000"/><rect width="6" height="6" x="84" y="168" fill="#000"/><rect width="6" height="6" x="102" y="168" fill="#000"/><rect width="6" height="6" x="120" y="168" fill="#000"/><rect width="6" height="6" x="126" y="168" fill="#000"/><rect width="6" height="6" x="132" y="168" fill="#000"/><rect width="6" height="6" x="138" y="168" fill="#000"/><rect width="6" height="6" x="144" y="168" fill="#000"/><rect width="6" height="6" x="150" y="168" fill="#000"/><rect width="6" height="6" x="162" y="168" fill="#000"/><rect width="6" height="6" x="168" y="168" fill="#000"/><rect width="6" height="6" x="174" y="168" fill="#000"/><rect width="6" height="6" x="180" y="168" fill="#000"/><rect width="6" height="6" x="186" y="168" fill="#000"/><rect width="6" height="6" x="192" y="168" fill="#000"/><rect width="6" height="6" x="204" y="168" fill="#000"/><rect width="6" height="6" x="210" y="168" fill="#000"/><rect width="6" height="6" x="216" y="168" fill="#000"/><rect width="6" height="6" x="48" y="174" fill="#000"/><rect width="6" height="6" x="66" y="174" fill="#000"/><rect width="6" height="6" x="72" y="174" fill="#000"/><rect width="6" height="6" x="84" y="174" fill="#000"/><rect width="6" height="6" x="90" y="174" fill="#000"/><rect width="6" height="6" x="96" y="174" fill="#000"/><rect width="6" height="6" x="108" y="174" fill="#000"/><rect width="6" height="6" x="114" y="174" fill="#000"/><rect width="6" height="6" x="132" y="174" fill="#000"/><rect width="6" height="6" x="138" y="174" fill="#000"/><rect width="6" height="6" x="156" y="174" fill="#000"/><rect width="6" height="6" x="168" y="174" fill="#000"/><rect width="6" height="6" x="192" y="174" fill="#000"/><rect width="6" height="6" x="210" y="174" fill="#000"/><rect width="6" height="6" x="0" y="180" fill="#000"/><rect width="6" height="6" x="6" y="180" fill="#000"/><rect width="6" height="6" x="12" y="180" fill="#000"/><rect width="6" height="6" x="18" y="180" fill="#000"/><rect width="6" height="6" x="24" y="180" fill="#000"/><rect width="6" height="6" x="30" y="180" fill="#000"/><rect width="6" height="6" x="36" y="180" fill="#000"/><rect width="6" height="6" x="60" y="180" fill="#000"/><rect width="6" height="6" x="78" y="180" fill="#000"/><rect width="6" height="6" x="90" y="180" fill="#000"/><rect width="6" height="6" x="96" y="180" fill="#000"/><rect width="6" height="6" x="108" y="180" fill="#000"/><rect width="6" height="6" x="132" y="180" fill="#000"/><rect width="6" height="6" x="150" y="180" fill="#000"/><rect width="6" height="6" x="168" y="180" fill="#000"/><rect width="6" height="6" x="180" y="180" fill="#000"/><rect width="6" height="6" x="192" y="180" fill="#000"/><rect width="6" height="6" x="198" y="180" fill="#000"/><rect width="6" height="6" x="216" y="180" fill="#000"/><rect width="6" height="6" x="0" y="186" fill="#000"/><rect width="6" height="6" x="36" y="186" fill="#000"/><rect width="6" height="6" x="54" y="186" fill="#000"/><rect width="6" height="6" x="60" y="186" fill="#000"/><rect width="6" height="6" x="90" y="186" fill="#000"/><rect width="6" height="6" x="96" y="186" fill="#000"/><rect width="6" height="6" x="114" y="186" fill="#000"/><rect width="6" height="6" x="126" y="186" fill="#000"/><rect width="6" height="6" x="132" y="186" fill="#000"/><rect width="6" height="6" x="156" y="186" fill="#000"/><rect width="6" height="6" x="168" y="186" fill="#000"/><rect width="6" height="6" x="192" y="186" fill="#000"/><rect width="6" height="6" x="0" y="192" fill="#000"/><rect width="6" height="6" x="12" y="192" fill="#000"/><rect width="6" height="6" x="18" y="192" fill="#000"/><rect width="6" height="6" x="24" y="192" fill="#000"/><rect width="6" height="6" x="36" y="192" fill="#000"/><rect width="6" height="6" x="48" y="192" fill="#000"/><rect width="6" height="6" x="60" y="192" fill="#000"/><rect width="6" height="6" x="78" y="192" fill="#000"/><rect width="6" height="6" x="84" y="192" fill="#000"/><rect width="6" height="6" x="96" y="192" fill="#000"/><rect width="6" height="6" x="120" y="192" fill="#000"/><rect width="6" height="6" x="126" y="192" fill="#000"/><rect width="6" height="6" x="138" y="192" fill="#000"/><rect width="6" height="6" x="150" y="192" fill="#000"/><rect width="6" height="6" x="156" y="192" fill="#000"/><rect width="6" height="6" x="162" y="192" fill="#000"/><rect width="6" height="6" x="168" y="192" fill="#000"/><rect width="6" height="6" x="174" y="192" fill="#000"/><rect width="6" height="6" x="180" y="192" fill="#000"/><rect width="6" height="6" x="186" y="192" fill="#000"/><rect width="6" height="6" x="192" y="192" fill="#000"/><rect width="6" height="6" x="204" y="192" fill="#000"/><rect width="6" height="6" x="0" y="198" fill="#000"/><rect width="6" height="6" x="12" y="198" fill="#000"/><rect width="6" height="6" x="18" y="198" fill="#000"/><rect width="6" height="6" x="24" y="198" fill="#000"/><rect width="6" height="6" x="36" y="198" fill="#000"/><rect width="6" height="6" x="48" y="198" fill="#000"/><rect width="6" height="6" x="54" y="198" fill="#000"/><rect width="6" height="6" x="60" y="198" fill="#000"/><rect width="6" height="6" x="90" y="198" fill="#000"/><rect width="6" height="6" x="96" y="198" fill="#000"/><rect width="6" height="6" x="102" y="198" fill="#000"/><rect width="6" height="6" x="114" y="198" fill="#000"/><rect width="6" height="6" x="120" y="198" fill="#000"/><rect width="6" height="6" x="132" y="198" fill="#000"/><rect width="6" height="6" x="144" y="198" fill="#000"/><rect width="6" height="6" x="180" y="198" fill="#000"/><rect width="6" height="6" x="186" y="198" fill="#000"/><rect width="6" height="6" x="192" y="198" fill="#000"/><rect width="6" height="6" x="198" y="198" fill="#000"/><rect width="6" height="6" x="204" y="198" fill="#000"/><rect width="6" height="6" x="0" y="204" fill="#000"/><rect width="6" height="6" x="12" y="204" fill="#000"/><rect width="6" height="6" x="18" y="204" fill="#000"/><rect width="6" height="6" x="24" y="204" fill="#000"/><rect width="6" height="6" x="36" y="204" fill="#000"/><rect width="6" height="6" x="48" y="204" fill="#000"/><rect width="6" height="6" x="60" y="204" fill="#000"/><rect width="6" height="6" x="78" y="204" fill="#000"/><rect width="6" height="6" x="84" y="204" fill="#000"/><rect width="6" height="6" x="120" y="204" fill="#000"/><rect width="6" height="6" x="126" y="204" fill="#000"/><rect width="6" height="6" x="132" y="204" fill="#000"/><rect width="6" height="6" x="156" y="204" fill="#000"/><rect width="6" height="6" x="168" y="204" fill="#000"/><rect width="6" height="6" x="198" y="204" fill="#000"/><rect width="6" height="6" x="204" y="204" fill="#000"/><rect width="6" height="6" x="216" y="204" fill="#000"/><rect width="6" height="6" x="0" y="210" fill="#000"/><rect width="6" height="6" x="36" y="210" fill="#000"/><rect width="6" height="6" x="54" y="210" fill="#000"/><rect width="6" height="6" x="90" y="210" fill="#000"/><rect width="6" height="6" x="108" y="210" fill="#000"/><rect width="6" height="6" x="114" y="210" fill="#000"/><rect width="6" height="6" x="126" y="210" fill="#000"/><rect width="6" height="6" x="132" y="210" fill="#000"/><rect width="6" height="6" x="144" y="210" fill="#000"/><rect width="6" height="6" x="168" y="210" fill="#000"/><rect width="6" height="6" x="180" y="210" fill="#000"/><rect width="6" height="6" x="186" y="210" fill="#000"/><rect width="6" height="6" x="192" y="210" fill="#000"/><rect width="6" height="6" x="198" y="210" fill="#000"/><rect width="6" height="6" x="216" y="210" fill="#000"/><rect width="6" height="6" x="0" y="216" fill="#000"/><rect width="6" height="6" x="6" y="216" fill="#000"/><rect width="6" height="6" x="12" y="216" fill="#000"/><rect width="6" height="6" x="18" y="216" fill="#000"/><rect width="6" height="6" x="24" y="216" fill="#000"/><rect width="6" height="6" x="30" y="216" fill="#000"/><rect width="6" height="6" x="36" y="216" fill="#000"/><rect width="6" height="6" x="60" y="216" fill="#000"/><rect width="6" height="6" x="66" y="216" fill="#000"/><rect width="6" height="6" x="72" y="216" fill="#000"/><rect width="6" height="6" x="78" y="216" fill="#000"/><rect width="6" height="6" x="84" y="216" fill="#000"/><rect width="6" height="6" x="96" y="216" fill="#000"/><rect width="6" height="6" x="108" y="216" fill="#000"/><rect width="6" height="6" x="126" y="216" fill="#000"/><rect width="6" height="6" x="132" y="216" fill="#000"/><rect width="6" height="6" x="144" y="216" fill="#000"/><rect width="6" height="6" x="150" y="216" fill="#000"/><rect width="6" height="6" x="162" y="216" fill="#000"/><rect width="6" height="6" x="180" y="216" fill="#000"/><rect width="6" height="6" x="186" y="216" fill="#000"/><rect width="6" height="6" x="192" y="216" fill="#000"/><rect width="6" height="6" x="204" y="216" fill="#000"/><rect width="6" height="6" x="210" y="216" fill="#000"/><rect width="6" height="6" x="216" y="216" fill="#000"/></svg>